<svg xmlns="http://www.w3.org/2000/svg" viewBox="0 0 64 64" id="Chef">
  <g fill="#d8a353" class="color000000 svgShape">
    <circle cx="29" cy="52" r="1" fill="#d8a353" class="color000000 svgShape"></circle>
    <circle cx="29" cy="57" r="1" fill="#d8a353" class="color000000 svgShape"></circle>
    <circle cx="35" cy="52" r="1" fill="#d8a353" class="color000000 svgShape"></circle>
    <circle cx="35" cy="57" r="1" fill="#d8a353" class="color000000 svgShape"></circle>
    <path d="M50.592 47.136a58.071 58.071 0 0 0-10.3-5.24h-.013a9.294 9.294 0 0 1-1.355-2.077 9.9 9.9 0 0 0 5.05-7.914 4.979 4.979 0 0 0 1.392-9.277c3.226-1.056 4.846-4.161 4.63-7.685-.191-5.113-5.473-8.278-10.223-6.776a7.986 7.986 0 0 0-15.55 0 9.11 9.11 0 0 0-4.461-.135A7.305 7.305 0 0 0 14 15a8.5 8.5 0 0 0 5.03 7.408 5 5 0 0 0 .994 9.493 9.9 9.9 0 0 0 5.05 7.914 9.294 9.294 0 0 1-1.355 2.077 58 58 0 0 0-10.31 5.244A16.582 16.582 0 0 0 6 61a1 1 0 0 0 1 1h50a1 1 0 0 0 1-1 16.584 16.584 0 0 0-7.408-13.864ZM42 29.132l-8.484-2.7a4.967 4.967 0 0 0-3.032 0L22 29.132v-2.541c6.791-3.644 13.345-3.646 20-.005Zm0-4.8a21.57 21.57 0 0 0-20 .012V22.6a20.649 20.649 0 0 1 20 0ZM46 27a3 3 0 0 1-2 2.816v-5.632A3 3 0 0 1 46 27Zm-26 2.816a2.982 2.982 0 0 1 0-5.632ZM16 15a5.246 5.246 0 0 1 4.236-5.028c2.832-.627 6.309.523 7 3.79a1 1 0 0 0 1.936-.505 6.866 6.866 0 0 0-3.066-4.3A5.878 5.878 0 0 1 32 4a5.968 5.968 0 0 1 6.006 5.611 1.007 1.007 0 0 0 1.4.8c3.694-1.732 8.414.347 8.594 4.65.216 3.221-1.544 5.844-4.789 5.921a22.629 22.629 0 0 0-22.324-.055A6.533 6.533 0 0 1 16 15Zm6 16.231 9.09-2.892a2.977 2.977 0 0 1 1.82 0L42 31.231c.155 4.672-4.376 8.461-10 8.469-5.624-.008-10.155-3.8-10-8.469Zm16.185 11.222L32 45.016l-6.185-2.563A14.353 14.353 0 0 0 26.86 40.7a13.748 13.748 0 0 0 10.28 0 14.353 14.353 0 0 0 1.045 1.753ZM24 51.672V60h-7v-3a1 1 0 0 0-2 0v3H8.034a14.571 14.571 0 0 1 6.478-11.2 55.452 55.452 0 0 1 9.578-4.9l5.3 2.2-2.3.955A4.988 4.988 0 0 0 24 51.672ZM49 60v-3a1 1 0 0 0-2 0v3H26v-8.328a2.994 2.994 0 0 1 1.851-2.772l12.06-5a55.51 55.51 0 0 1 9.576 4.9A14.573 14.573 0 0 1 55.966 60Z" fill="#d8a353" class="color000000 svgShape"></path>
  </g>
</svg>
