<svg xmlns="http://www.w3.org/2000/svg" enable-background="new 0 0 512 512" viewBox="0 0 512 512" id="Cafe">
  <path d="M504.001,39.71c4.418,0,8-3.582,8-8v-24c0-4.418-3.582-8-8-8h-496c-4.418,0-8,3.582-8,8v24c0,4.418,3.582,8,8,8h8v23.395
		L0.094,166.495c-0.062,0.402-0.094,0.809-0.094,1.215v32c0,4.418,3.582,8,8,8v296c0,4.418,3.582,8,8,8h480c4.418,0,8-3.582,8-8
		v-296c4.418,0,8-3.582,8-8v-32c0-0.406-0.031-0.812-0.094-1.215L496.001,63.104V39.71H504.001z M16.001,175.71h32v16h-32V175.71z
		 M424.001,191.71v-16h40v16H424.001z M142.77,71.71l-13.538,88h-40l13.538-88H142.77z M462.77,159.71h-40l-13.538-88h40
		L462.77,159.71z M369.232,71.71l13.538,88h-40l-13.538-88H369.232z M289.232,71.71l13.538,88h-46.769v-88H289.232z M209.232,159.71
		h-40l13.538-88h40L209.232,159.71z M128.001,175.71v16h-40v-16H128.001z M168.001,175.71h40v16h-40V175.71z M256.001,175.71h48v16
		h-48V175.71z M344.001,175.71h40v16h-40V175.71z M480.001,55.71h-448v-16h448V55.71z M62.77,71.71l-13.538,88H17.326l13.538-88
		H62.77z M176.001,495.71h-32v-88h32V495.71z M160.001,391.71c-8.824,0-16-7.176-16-16s7.176-16,16-16
		c3.945,0,7.719,1.453,10.746,4.191c3.34,2.91,5.254,7.215,5.254,11.809C176.001,384.534,168.825,391.71,160.001,391.71z
		 M240.001,431.71v-120h32v120H240.001z M328.001,354.814c-5.036,5.713-8,13.062-8,20.896c0,6.128,1.819,11.804,4.818,16.675
		c-2.83,1.232-4.818,4.042-4.818,7.325v96h-16v-208c0-4.4-3.6-8-8-8h-80c-4.4,0-8,3.6-8,8v208h-16v-96
		c0-3.284-1.988-6.093-4.818-7.325c3-4.871,4.818-10.547,4.818-16.675c0-9.223-3.918-17.926-10.629-23.77
		c-5.859-5.309-13.449-8.23-21.371-8.23c-17.645,0-32,14.355-32,32c0,5.854,1.695,11.274,4.452,16H56.001v-160c0-4.418-3.582-8-8-8
		s-8,3.582-8,8v160c-4.418,0-8,3.582-8,8v32c0,4.418,3.582,8,8,8h48c4.418,0,8-3.582,8-8h16c0,4.418,3.582,8,8,8h8v56h-104v-288h144
		v120c0,4.418,3.582,8,8,8s8-3.582,8-8v-120h144V354.814z M368.001,495.71h-32v-88h32V495.71z M352.001,391.71
		c-8.824,0-16-7.176-16-16c0-4.594,1.914-8.898,5.371-11.91c2.91-2.637,6.684-4.09,10.629-4.09c8.824,0,16,7.176,16,16
		S360.825,391.71,352.001,391.71z M400.001,495.71h-16v-56h16v32V495.71z M464.001,495.71h-48v-16h48V495.71z M464.001,463.71h-48
		v-72h48V463.71z M488.001,495.71h-8v-24v-88c0-4.418-3.582-8-8-8v-144c0-4.418-3.582-8-8-8s-8,3.582-8,8v144h-48
		c-4.418,0-8,3.582-8,8v16h-16c0-3.284-1.988-6.093-4.818-7.325c3-4.871,4.818-10.547,4.818-16.675c0-17.645-14.355-32-32-32
		c-2.74,0-5.402,0.469-8,1.142V207.71h144V495.71z M16.001,23.71v-8h480v8H16.001z" fill="#d8a353" class="color000000 svgShape"></path>
  <path d="M216.001 263.71h80c4.418 0 8-3.582 8-8v-32c0-4.418-3.582-8-8-8h-80c-4.418 0-8 3.582-8 8v32C208.001 260.128 211.583 263.71 216.001 263.71zM224.001 231.71h64v16h-64V231.71zM143.36 287.71h-15.359-56c-4.418 0-8 3.582-8 8v20c0 19.852 16.148 36 36 36 12.084 0 23.304-6.141 29.855-16h13.504c9.176 0 16.641-7.465 16.641-16.641V304.35C160.001 295.175 152.536 287.71 143.36 287.71zM120.001 315.71c0 3.047-.648 5.859-1.926 8.359-.043.086-.086.176-.125.262-3.223 6.914-10.266 11.379-17.949 11.379-11.027 0-20-8.973-20-20v-12h40V315.71zM144.001 319.069c0 .383-.258.641-.641.641h-7.581c.144-1.312.222-2.646.222-4v-12h7.359c.383 0 .641.258.641.641V319.069zM78.372 274.233c2.496 4.039 6.609 5.477 9.629 5.477 4.418 0 8-3.582 8-8 0-2.645-1.281-4.988-3.258-6.445.324-1.223 1-3.152 2.414-5.977 3.098-6.195 6.723-15.223 2.473-22.102-2.496-4.039-6.609-5.477-9.629-5.477-4.418 0-8 3.582-8 8 0 2.645 1.281 4.988 3.258 6.445-.324 1.223-1 3.152-2.414 5.977C77.747 258.327 74.122 267.354 78.372 274.233zM102.372 274.233c2.496 4.039 6.609 5.477 9.629 5.477 4.418 0 8-3.582 8-8 0-2.645-1.281-4.988-3.258-6.445.324-1.223 1-3.152 2.414-5.977 3.098-6.195 6.723-15.223 2.473-22.102-2.496-4.039-6.609-5.477-9.629-5.477-4.418 0-8 3.582-8 8 0 2.645 1.281 4.988 3.258 6.445-.324 1.223-1 3.152-2.414 5.977C101.747 258.327 98.122 267.354 102.372 274.233zM388.001 351.71c12.084 0 23.304-6.141 29.855-16h13.504c9.176 0 16.641-7.465 16.641-16.641V304.35c0-9.176-7.465-16.641-16.641-16.641h-15.359-56c-4.418 0-8 3.582-8 8v20C352.001 335.561 368.149 351.71 388.001 351.71zM424.001 315.71v-12h7.359c.383 0 .641.258.641.641v14.719c0 .383-.258.641-.641.641h-7.581C423.923 318.397 424.001 317.064 424.001 315.71zM368.001 303.71h40v12c0 3.047-.648 5.859-1.926 8.359-.043.086-.086.176-.125.262-3.223 6.914-10.266 11.379-17.949 11.379-11.027 0-20-8.973-20-20V303.71zM366.372 274.233c2.496 4.039 6.609 5.477 9.629 5.477 4.418 0 8-3.582 8-8 0-2.645-1.281-4.988-3.258-6.445.324-1.223 1-3.152 2.414-5.977 3.098-6.195 6.723-15.223 2.473-22.102-2.496-4.039-6.609-5.477-9.629-5.477-4.418 0-8 3.582-8 8 0 2.645 1.281 4.988 3.258 6.445-.324 1.223-1 3.152-2.414 5.977C365.747 258.327 362.122 267.354 366.372 274.233zM390.372 274.233c2.496 4.039 6.609 5.477 9.629 5.477 4.418 0 8-3.582 8-8 0-2.645-1.281-4.988-3.258-6.445.324-1.223 1-3.152 2.414-5.977 3.098-6.195 6.723-15.223 2.473-22.102-2.496-4.039-6.609-5.477-9.629-5.477-4.418 0-8 3.582-8 8 0 2.645 1.281 4.988 3.258 6.445-.324 1.223-1 3.152-2.414 5.977C389.747 258.327 386.122 267.354 390.372 274.233zM432.001 415.71h16c4.418 0 8-3.582 8-8s-3.582-8-8-8h-16c-4.418 0-8 3.582-8 8S427.583 415.71 432.001 415.71zM432.001 439.71h16c4.418 0 8-3.582 8-8s-3.582-8-8-8h-16c-4.418 0-8 3.582-8 8S427.583 439.71 432.001 439.71z" fill="#d8a353" class="color000000 svgShape"></path>
</svg>
