<svg xmlns="http://www.w3.org/2000/svg" viewBox="0 0 512 512" id="coffeebeans">
  <path d="M330.275 491.924L305.687 495.786C300.737 496.524 295.21 496.298 290.193 496.315L211.178 496.105L203.002 495.251C192.055 494.135 180.713 492.457 170.352 488.61C157.676 483.904 155.98 482.127 154.326 469.821L147.792 420.634C139.759 414.899 139.396 412.796 138.171 402.78L120.947 262.339C119.522 250.405 117.25 238.399 116.356 226.426C115.794 218.911 121.091 210.821 127.93 207.945L128.261 207.809C126.753 201.205 126.066 194.246 125.212 187.525L119.844 144.75C119.714 143.478 119.904 141.739 119.464 140.594C115.058 140.845 109.137 138.238 105.528 135.814C85.5811 122.42 96.0869 100.359 111.954 88.3354L117.242 84.6855C121.088 82.155 119.345 81.3465 120.51 76.4958C123.262 65.0301 131.274 52.3659 143.836 50.2462C144.499 50.1343 144.672 48.957 144.888 48.3281C147.142 41.7686 149.701 35.4797 152.747 29.25C159.432 15.5767 163.391 13.0738 177.466 12.8007L335.89 12.7989C338.526 12.802 341.642 12.6424 344.176 13.4348L344.589 13.59C358.896 18.8301 361.817 37.5932 369.197 49.4827L370.625 49.7237C373.039 50.1421 375.544 52.0529 377.402 53.5667C386.92 61.3182 392.215 71.6127 393.433 83.7764C409.146 92.2949 426.47 114.102 412.049 130.978C406.742 137.189 400.353 139.405 392.458 140.061L385.892 193.502C385.701 194.848 383.742 207.16 383.898 207.553C383.968 207.729 385.74 208.754 386.002 208.93C391.44 212.574 396.733 219.603 396.15 226.547L374.573 398.583C373.861 405.299 373.822 412.103 368.427 416.968C366.924 418.324 364.436 419.608 364.069 421.65C363.241 426.253 362.993 431.069 362.386 435.718L357.81 470.734C357.466 473.74 357.414 477.453 355.84 480.094C351.486 487.398 337.881 490.05 330.275 491.924ZM233.076 28.618L170.251 28.7051C169.431 29.9315 169.052 31.4373 168.415 32.7797L161.852 46.8263C161.263 48.1307 160.937 49.7968 160.023 50.8743L278.875 50.9107L352.123 50.6033C351.382 49.9047 345.003 34.9461 343.768 32.6186C341.969 29.2299 341.875 28.7312 337.875 28.6571L233.076 28.618ZM145.418 66.5465L141.847 66.826C138.628 70.8494 136.202 76.8508 134.654 81.677C137.949 82.0772 141.31 81.9686 144.625 81.977L366.807 82.0039L373.411 82.0656C374.583 82.0753 375.981 82.2322 377.124 82.0093C375.269 75.9474 373.383 66.7764 365.375 66.5746L145.418 66.5465ZM182.098 97.6681L131.901 97.6828C130.041 97.6848 127.888 97.4886 126.072 97.898C119.775 99.3177 110.118 110.006 110.327 116.375C110.736 128.794 135.556 125.171 143.777 125.171L330.625 125.165L385.773 125.155C405.62 125.129 405.924 114.21 393.511 102.478C388.296 97.5501 383.579 97.6981 376.891 97.68L182.098 97.6681ZM135.423 140.52L143.493 203.73C143.605 204.416 143.617 205.508 144.043 206.033L368.396 205.832L369.36 199.44L376.135 146.625C376.33 144.623 376.358 142.484 376.81 140.527L135.423 140.52ZM346.152 221.455L147.458 221.481C141.423 221.491 138.166 221.79 132.463 222.342C132.209 225.807 132.392 229.421 132.744 232.878L153.66 400.516C154.091 403.761 153.647 406.157 157.436 406.413L167.259 406.509L345.63 406.478C349.605 406.472 353.878 406.859 357.686 405.572C358.332 404.813 358.532 402.124 358.674 401.088L379.224 236.006C380.827 221.341 382.489 221.499 365.694 221.455L346.152 221.455ZM163.689 421.766L170.32 470.595C170.812 473.741 173.205 473.689 175.941 474.528C192.795 479.694 208.776 480.461 226.108 480.489L286.956 480.496C301.585 480.473 310.671 480.267 325.35 477.15L340.875 472.971L341.625 472.518C342.81 466.685 343.079 460.442 343.93 454.523L346.726 435.566C347.406 430.986 348.215 426.348 348.371 421.719L163.689 421.766Z" fill="#d8a353" class="color000000 svgShape"></path>
  <path d="M250.312 373.742C245.809 373.932 241.084 374.106 236.603 373.613C212.882 371.006 194.053 353.09 191.891 328.933C188.091 286.477 229.098 248.907 269.831 245.352C285.547 244.414 299.716 247.947 312.007 258.469C337.462 280.262 329.068 319.103 309.26 341.787C294.439 358.761 273.175 372.261 250.312 373.742ZM273.886 261.113C240.275 262.583 205.849 291.727 207.493 326.859L207.776 330.306L226.903 319.334C243.404 309.023 241.234 304.092 250.375 290.022C262.579 271.237 281.105 265.773 302.066 269.489C292.977 263.721 284.564 260.807 273.886 261.113ZM288.23 283.875C274.921 284.599 266.141 293.405 260.376 304.604C256.405 312.32 253.558 318.7 246.538 324.247L241.517 327.853C239.872 328.935 229.678 334.848 229.392 335.653L229.875 335.731C240.459 333.832 251.663 329.121 258.035 320.025C260.721 316.191 262.008 311.76 264.051 307.595C268.908 297.696 278.316 288.063 288.714 284.125C288.376 283.892 288.543 283.963 288.23 283.875ZM311.395 288.625C301.444 295.164 290.786 298.647 282.388 307.693C277.113 313.376 275.561 321.31 271.615 327.843C261.596 344.435 238.943 354.071 219.853 350.111C219.087 349.952 218.149 349.585 217.384 349.58L223.406 353.098C227.859 355.268 232.206 357.025 237.105 357.953C264.287 363.102 295.505 340.012 306.665 316.825C310.96 307.899 312.372 298.675 311.64 288.84L311.395 288.625Z" fill="#d8a353" class="color000000 svgShape"></path>
</svg>
