<svg xmlns="http://www.w3.org/2000/svg" enable-background="new 0 0 48 48" viewBox="0 0 48 48" id="AnalysisGraph">
  <path d="M40,24H8c-0.553,0-1-0.447-1-1V1c0-0.553,0.447-1,1-1h32c0.553,0,1,0.447,1,1v22C41,23.553,40.553,24,40,24z M9,22h30V2H9
		V22z" fill="#d8a353" class="color000000 svgShape"></path>
  <path d="M14 20c-.553 0-1-.447-1-1v-5.25c0-.553.447-1 1-1s1 .447 1 1V19C15 19.553 14.553 20 14 20zM18 20c-.553 0-1-.447-1-1v-7c0-.553.447-1 1-1s1 .447 1 1v7C19 19.553 18.553 20 18 20zM22 20c-.553 0-1-.447-1-1v-8.75c0-.553.447-1 1-1s1 .447 1 1V19C23 19.553 22.553 20 22 20zM26 20c-.553 0-1-.447-1-1V8.5c0-.553.447-1 1-1s1 .447 1 1V19C27 19.553 26.553 20 26 20zM30 20c-.553 0-1-.447-1-1V6.75c0-.553.447-1 1-1s1 .447 1 1V19C31 19.553 30.553 20 30 20zM34 20c-.553 0-1-.447-1-1V5c0-.553.447-1 1-1s1 .447 1 1v14C35 19.553 34.553 20 34 20z" fill="#d8a353" class="color000000 svgShape"></path>
  <path d="M36,20H12c-0.553,0-1-0.447-1-1s0.447-1,1-1h24c0.553,0,1,0.447,1,1S36.553,20,36,20z" fill="#d8a353" class="color000000 svgShape"></path>
  <path d="M44,48H4c-0.553,0-1-0.447-1-1V15c0-0.553,0.447-1,1-1h4c0.553,0,1,0.447,1,1v7h30v-7c0-0.553,0.447-1,1-1h4
		c0.553,0,1,0.447,1,1v32C45,47.553,44.553,48,44,48z M5,46h38V16h-2v7c0,0.553-0.447,1-1,1H8c-0.553,0-1-0.447-1-1v-7H5V46z" fill="#d8a353" class="color000000 svgShape"></path>
  <path d="M22,44c-3.859,0-7-3.141-7-7s3.141-7,7-7c0.553,0,1,0.447,1,1v5h5c0.553,0,1,0.447,1,1C29,40.859,25.859,44,22,44z
		 M21,32.101c-2.279,0.465-4,2.484-4,4.899c0,2.757,2.243,5,5,5c2.415,0,4.435-1.721,4.899-4H22c-0.553,0-1-0.447-1-1V32.101z" fill="#d8a353" class="color000000 svgShape"></path>
  <path d="M32,34h-6c-0.553,0-1-0.447-1-1v-6c0-0.553,0.447-1,1-1c3.859,0,7,3.141,7,7C33,33.553,32.553,34,32,34z M27,32h3.899
		c-0.398-1.956-1.943-3.501-3.899-3.899V32z" fill="#d8a353" class="color000000 svgShape"></path>
  <rect width="48" height="48" fill="none"></rect>
</svg>
