<svg xmlns="http://www.w3.org/2000/svg" enable-background="new 0 0 512 512" viewBox="0 0 512 512" id="Portafilter">
  <path d="M465.016 240.019c-.044-.006-.094-.003-.139-.008-.302-.033-.565-.171-.876-.171-.156 0-.286.082-.439.091-1.175-.102-2.352-.216-3.561-.216h-73.281c-8.004 0-16.105 1.883-23.5 5.484-3.609 1.812-7.566 3-11.73 3.539l-111.697 13.943c-.527-3.91-3.74-6.966-7.792-6.966h-16v-16c0-4.422-3.582-8-8-8h-168c-4.418 0-8 3.578-8 8h-24c-4.418 0-8 3.578-8 8v32c0 4.422 3.582 8 8 8h24v3.438c0 15.266 6.332 30.039 17.367 40.516l16.246 15.453c1.715 1.628 3.783 2.819 5.988 3.598v14.434c0 2.492-1.77 4.75-4.156 5.359l-13.043 3.211c-8.441 2.18-14.719 9.188-16.004 17.906l-4.5 31.68c-.117.953-.219 2.016-.219 2.969 0 11.82 9.652 21.438 21.52 21.438 8.23 0 15.633-4.578 19.316-11.945l8.48-16.953c.957-1.914 2.875-3.102 5.004-3.102h73.695c2.129 0 4.047 1.188 5 3.102l8.48 16.953c3.684 7.367 11.086 11.945 19.316 11.945 6.266 0 12.203-2.719 16.293-7.453 4.078-4.719 5.891-10.969 4.988-17.109l-4.484-31.562c-1.277-8.68-7.559-15.688-16.082-17.883l-12.906-3.188c-2.438-.617-4.207-2.875-4.207-5.367v-15.157c1.556-.75 3.032-1.68 4.297-2.882l16.262-15.461c1.35-1.293 2.575-2.617 3.704-3.938h29.644c4.051 0 7.263-3.057 7.791-6.966l111.666 13.942c4.195.539 8.152 1.727 11.84 3.578 7.316 3.562 15.418 5.445 23.422 5.445h73.281c1.331 0 2.6-.075 3.715-.181.1.003.184.056.285.056.271 0 .5-.131.765-.159 12.023-1.022 23.39-6.32 32.013-14.943 9.816-9.812 15.223-22.867 15.223-36.773C512.001 264.621 491.669 242.386 465.016 240.019zM200.001 247.714v8h-152v-8H200.001zM16.001 255.714h16v16h-16V255.714zM170.962 335.714h-50.961c-4.418 0-8 3.578-8 8s3.582 8 8 8h42.094v13.438c0 9.859 6.691 18.445 16.324 20.891l12.879 3.18c2.16.555 3.832 2.438 4.156 4.656l4.484 31.562c.316 2.156-.656 3.664-1.266 4.367-.613.711-1.973 1.906-4.18 1.906-2.129 0-4.047-1.188-5.004-3.102l-8.48-16.945c-3.68-7.375-11.078-11.953-19.312-11.953H88.001c-8.23 0-15.633 4.578-19.316 11.945l-8.48 16.953c-.957 1.914-2.875 3.102-5.004 3.102-3.043 0-5.52-2.438-5.52-5.438.004-.328.062-.703.082-.875l4.473-31.484c.332-2.258 2.004-4.141 4.078-4.68l13.016-3.203c9.582-2.438 16.273-11.023 16.273-20.883v-13.438h8.398c4.418 0 8-3.578 8-8s-3.582-8-8-8l-19.367-.195-16.246-15.453c-7.871-7.469-12.387-18.016-12.387-28.914v-11.438-8h152v19.438c0 8.617-2.742 16.836-8.059 23.953-1.18 1.672-2.645 3.352-4.332 4.969L170.962 335.714zM224.001 311.714h-12.107c2.605-6.505 4.107-13.406 4.107-20.562v-19.438h8V311.714zM370.383 323.918c-5.223-2.609-10.898-4.328-16.91-5.102l-113.473-14.165v-25.874l113.504-14.165c5.98-.773 11.656-2.492 16.801-5.062 5.148-2.508 10.824-3.836 16.414-3.836h69.281v72h-69.281C381.13 327.714 375.454 326.386 370.383 323.918zM485.466 317.175c-3.8 3.798-8.42 6.54-13.465 8.309v-67.559c14.112 4.92 24 18.124 24 33.789C496.001 301.339 492.258 310.386 485.466 317.175zM80.001 487.714c0-11.352-14.152-25.68-18.488-29.797-3.094-2.938-7.93-2.938-11.023 0-4.336 4.117-18.488 18.445-18.488 29.797 0 13.234 10.766 24 24 24S80.001 500.949 80.001 487.714zM48.001 487.738c.109-2.086 3.551-7.266 8.004-12.422 4.445 5.141 7.879 10.312 7.996 12.414-.008 4.406-3.594 7.984-8 7.984C51.591 495.714 48.001 492.128 48.001 487.738zM216.001 487.714c0-11.352-14.152-25.68-18.488-29.797-3.094-2.938-7.93-2.938-11.023 0-4.336 4.117-18.488 18.445-18.488 29.797 0 13.234 10.766 24 24 24S216.001 500.949 216.001 487.714zM184.001 487.738c.109-2.086 3.551-7.266 8.004-12.422 4.445 5.141 7.879 10.312 7.996 12.414-.008 4.406-3.594 7.984-8 7.984C187.591 495.714 184.001 492.128 184.001 487.738zM42.872 169.7c-1.72 1.467-2.872 3.574-2.872 6.014v40c0 4.422 3.582 8 8 8h152c4.418 0 8-3.578 8-8v-40c0-2.41-1.118-4.501-2.802-5.967-.116-.128-.159-.293-.284-.416l-28.694-27.925 7.752-93.028c.02-.219.027-.445.027-.664 0-26.469-26.914-48-60-48-32.614 0-59.176 20.934-59.903 47.519-.011.168-.097.31-.097.481 0 .091.049.167.052.258-.001.137-.025.269-.025.406l7.752 93.029-28.592 27.831C43.049 169.374 43 169.557 42.872 169.7zM192.001 207.714h-136v-24h80c4.418 0 8-3.578 8-8s-3.582-8-8-8H67.692l16.438-16h79.742l16.44 16h-20.312c-4.418 0-8 3.578-8 8s3.582 8 8 8h32V207.714zM160.641 135.714H87.36l-6.69-80h86.635L160.641 135.714zM124.001 15.714c20.46 0 37.652 10.222 42.554 24H81.448C86.352 25.934 103.543 15.714 124.001 15.714z" fill="#d8a353" class="color000000 svgShape"></path>
</svg>
