<svg xmlns="http://www.w3.org/2000/svg" xmlns:xlink="http://www.w3.org/1999/xlink" viewBox="0 0 64 64" id="CoffeeJar">
  <defs>
    <linearGradient id="a" x1="10.131" x2="66.131" y1="69.261" y2="14.261" gradientUnits="userSpaceOnUse">
      <stop offset="0" stop-color="#d8a353" class="stopColorfff200 svgShape"></stop>
      <stop offset="1" stop-color="#ad59d4" class="stopColorcd118c svgShape"></stop>
    </linearGradient>
    <linearGradient xlink:href="#a" id="b" x1="-11.167" x2="44.833" y1="47.575" y2="-7.425"></linearGradient>
    <linearGradient xlink:href="#a" id="c" x1="-7.775" x2="48.225" y1="51.029" y2="-3.971"></linearGradient>
    <linearGradient xlink:href="#a" id="d" x1="-.857" x2="55.143" y1="58.073" y2="3.073"></linearGradient>
  </defs>
  <g fill="#8526fe" class="color000000 svgShape">
    <path fill="url(#a)" d="M48.816,60A2.966,2.966,0,0,0,49,59V50h8a2,2,0,0,0,2-2V32a2,2,0,0,0-2-2H49V28a3,3,0,0,0,0-6H15a3,3,0,0,0,0,6v7.714c-.117.061-.236.109-.353.175A16.1,16.1,0,0,0,7.9,43.655c-2.752,6.4-1.338,13.3,3.057,16.345H2v2H62V60ZM57,32V48H49V32ZM14,25a1,1,0,0,1,1-1H49a1,1,0,0,1,0,2H15A1,1,0,0,1,14,25ZM9.731,44.445a14.1,14.1,0,0,1,5.891-6.81,8.974,8.974,0,0,1,4.36-1.219,6.947,6.947,0,0,1,2.758.56l.015.008c-.3.294-.608.571-.93.851a12.24,12.24,0,0,0-3.757,5.033A12.22,12.22,0,0,0,17,49.041a10.4,10.4,0,0,1-.909,5.31,10.414,10.414,0,0,1-3.224,4.31l-.116.1C8.593,56.545,7.22,50.287,9.731,44.445Zm19.394-2.124c4.763.974,8.362,4.136,8.823,7.867-.06-.029-.12-.055-.18-.084A12.233,12.233,0,0,0,31.66,48.64a14.138,14.138,0,0,0-2.475.2A15.332,15.332,0,0,0,29.125,42.321Zm-2.856,9.234a14.1,14.1,0,0,1-5.891,6.81A8.533,8.533,0,0,1,14.925,59.5a11.99,11.99,0,0,0,3-4.359A12.238,12.238,0,0,0,19,48.958a11.47,11.47,0,0,1,4.14-9.615c.439-.383.893-.779,1.352-1.261C27.656,40.792,28.511,46.339,26.269,51.555Zm-4,7.991a16.382,16.382,0,0,0,5.841-7.2q.284-.659.508-1.322a10.766,10.766,0,0,1,3.047-.383A10.4,10.4,0,0,1,36.9,51.906q.458.22.95.439C36.977,56.691,31.951,60,26,60A15.323,15.323,0,0,1,22.264,59.546ZM34,60c3.34-1.838,5.64-4.777,5.951-8.149A6.618,6.618,0,0,0,40,51c0-5.428-4.916-9.939-11.6-10.83a9.471,9.471,0,0,0-4.873-5.031,9.342,9.342,0,0,0-6.53-.26V28H47V59a1,1,0,0,1-1,1Z"></path>
    <path fill="url(#b)" d="M20,20h2V18H20a1,1,0,0,1,0-2h3a3,3,0,0,0,0-6H22v2h1a1,1,0,0,1,0,2H20a3,3,0,0,0,0,6Z"></path>
    <path fill="url(#c)" d="M32,15h2V13H32a1,1,0,0,1,0-2h3a3,3,0,0,0,0-6H34V7h1a1,1,0,0,1,0,2H32a3,3,0,0,0,0,6Z"></path>
    <path fill="url(#d)" d="M41,20h2V18H41a1,1,0,0,1,0-2h3a3,3,0,0,0,0-6H43v2h1a1,1,0,0,1,0,2H41a3,3,0,0,0,0,6Z"></path>
  </g>
</svg>
