<svg xmlns="http://www.w3.org/2000/svg" viewBox="0 0 512 512" id="coffeebeans">
  <path d="M259.482 495.258L256.466 495.264C244.185 495.274 232.105 493.977 219.994 491.961C105.513 472.902 23.3004 377.23 16.1176 261.988L15.9094 249.143C15.8806 196.885 30.2923 148.523 62.1976 106.429C106.037 48.5884 180.01 14.1617 252.369 14.1962L258.365 14.1849C331.972 14.2781 407.749 52.1941 451.992 111.003C478.646 146.433 493.805 193.395 496.308 237.707L496.539 255.849C496.313 381.169 386.123 495.668 259.482 495.258ZM244.614 30.0475C229.96 30.3863 215.164 32.7845 200.918 36.1652C104.983 58.931 37.9883 133.805 31.912 234.424C30.9287 250.707 31.8903 266.655 34.2929 282.756C50.0378 388.271 134.202 469.823 240.966 478.811C249.903 479.564 258.922 479.232 267.884 479.267C358.624 474.704 434.286 413.529 466.574 330.209C476.004 305.876 481.112 279.905 481.119 253.82L480.931 239.591C480.391 229.227 478.79 218.683 476.842 208.496C462.455 133.29 415.657 79.1669 345.632 48.9177C313.512 35.0426 279.679 28.7515 244.614 30.0475Z" fill="#d8a353" class="color000000 svgShape"></path>
  <path d="M269.635 306.508L275.063 323.704C277.941 334.48 279.255 345.315 279.269 356.438C279.318 395.527 260.129 442.835 216.528 448.195C193.454 451.032 171.467 440.673 153.673 426.722C123.22 402.845 105.398 365.623 100.917 327.654C95.8031 284.318 112.334 232.534 161.648 226.898C155.781 220.807 145.934 199.152 143.169 191.451C129.501 153.377 133.152 99.3047 183.903 94.8533C223.795 91.8162 262.989 125.411 283.66 156.177C287.311 161.612 290.959 167.364 293.45 173.43L294.732 171.139C299.734 162.41 306.198 154.128 312.996 146.735C331.018 127.133 360.335 107.658 388.355 113.036C419.064 118.929 428.291 146.019 428.302 174.458C428.32 221.483 400.306 274.309 359.579 298.653C332.646 314.752 300.84 315.336 282.958 287.229C281.149 284.385 279.372 281.1 278.566 277.81L278.491 277.49C273.941 281.435 266.508 285.155 260.575 286.387L260.297 286.442C264.354 292.704 266.998 299.566 269.635 306.508ZM184.991 110.331C183.586 110.544 181.872 110.668 180.768 111.625C180.472 121.646 192.057 137.71 198.37 144.417C207.934 154.578 221.507 158.645 231.121 168.763C237.813 175.807 241.301 184.351 243.986 193.547C246.97 203.767 248.966 208.205 255.085 216.945C270.417 238.841 267.303 247.846 259.066 271.228L268.613 265.171C269.832 264.234 271.175 263.336 272.123 262.113L271.75 252.012C271.566 237.988 272.464 225.761 276.53 212.121L283.509 192.921C284.168 191.449 284.511 191.514 283.864 190.041L282.024 185.831C268.185 153.986 240.336 123.414 206.375 113.244C200.618 111.52 194.822 110.259 188.797 110.217L184.991 110.331ZM165.105 116.375C162.517 119.364 159.946 122.44 157.951 125.867C142.08 153.125 158.03 194.589 174.105 217.895L178.146 223.49C182.168 228.887 186.464 227.463 193.235 229.637C211.831 235.607 228.301 246.429 242.093 260.201L246.872 265.073C248.871 257.489 251.404 249.559 250.191 241.625C248.488 230.487 238.852 223.07 234.107 213.36C228.834 202.568 229.107 189.521 220.701 180.295C215.052 174.095 207.989 171.421 201.05 167.154C186.844 158.421 175.05 142.466 168.677 127.185L166.549 121.375C166.183 120.214 165.787 117.138 165.105 116.375ZM378.462 128.136C334.904 127.992 299.292 183.775 290.255 221.096C285.299 241.564 284.196 268.677 300.103 284.758L300.776 285.423L304.131 288.061C306.546 285.379 308.251 281.958 310.087 278.862C317.373 266.57 317.825 262.616 319.488 248.601C321.807 229.059 331.777 213.004 348.085 201.994L361.423 193.785C374.682 185.282 386.463 171.098 387.421 154.704C388.092 143.227 385.473 141.621 389.446 129.483C386.276 127.989 381.954 127.989 378.462 128.136ZM402.707 137.125L402.681 137.5C402.478 138.952 402.832 140.768 402.91 142.257C404.189 166.413 396.521 186.834 377.109 202.398C370.624 207.598 363.252 211.008 356.308 215.476C343.671 223.61 336.507 237.29 334.845 252.014C332.959 268.717 332.733 272.326 322.799 287.551L320.178 291.59C319.616 292.552 319.357 293.543 318.507 294.311C321.429 294.293 324.412 294.4 327.309 293.981C375.782 287.558 411.965 221.512 412.582 176.798C412.729 166.165 410.23 143.728 403.005 137.188L402.707 137.125ZM168.323 241.438C157.397 241.275 152.795 243.525 152.698 254.915C152.419 287.811 173.727 293.151 189.053 314.949C202.368 333.887 198.599 349.84 196.196 370.237C194.726 382.713 196.802 398.664 203.25 409.746C206.457 415.257 211.167 419.58 214.714 424.826C216.205 427.032 216.871 429.291 218.082 431.567C225.108 429.532 230.901 427.077 236.832 422.723C278.438 389.704 266.24 315.341 236.339 277.738C222.118 259.853 199.796 244.483 176.738 241.71L168.323 241.438ZM136.672 253.506C115.446 277.015 111.925 305.674 118.113 336.245C125.615 373.302 150.158 415.374 187.696 428.785C192.161 430.495 196.453 431.974 201.219 432.548C197.101 426.376 191.753 421.546 188.254 414.852C181.803 402.509 178.792 384.239 180.309 370.679C181.723 358.036 185.681 346.223 181.015 333.544C175.412 318.316 160.96 310.317 151.347 298.081C141.393 285.413 137.121 269.378 136.672 253.506Z" fill="#d8a353" class="color000000 svgShape"></path>
</svg>
